<?xml version="1.0" encoding="utf-8"?>
<svg viewBox="0 0 76.9 49.9" xmlns="http://www.w3.org/2000/svg">
  <path fill="#3E721D" d="M 23.497 41.357 C 23.497 39.221 19.817 34.949 16.376 34.949 C 12.936 34.949 12.816 37.818 12.816 41.357 C 12.816 44.897 15.606 47.767 19.046 47.767 C 22.487 47.767 23.497 44.897 23.497 41.357 Z M 46.996 41.357 C 46.996 39.221 43.315 34.949 39.874 34.949 C 36.435 34.949 36.315 37.818 36.315 41.357 C 36.315 44.897 39.105 47.767 42.544 47.767 C 45.986 47.767 46.996 44.897 46.996 41.357 Z" style="" transform="matrix(-1, 0, 0, -1, 59.812001, 82.716)"/>
  <path fill="#5C913B" d="M 76.902 23.496 C 76.902 36.313 70.125 43.087 64.084 49.131 C 61.948 51.267 61.095 48.445 61.948 46.995 C 63.033 45.154 68.357 29.905 57.675 29.905 L 53.403 29.905 C 42.722 29.905 40.218 32.409 34.177 38.45 C 24.564 48.063 19.224 38.45 14.951 38.45 C 2.133 38.45 -0.003 42.321 -0.003 34.177 C -0.003 27.769 6.406 25.633 12.814 25.633 C 19.224 25.633 19.224 23.496 23.496 17.088 C 25.783 13.657 29.554 10.229 34.226 8.212 C 34.721 5.821 40.152 -0.002 43.435 -0.002 C 46.875 -0.002 46.995 2.867 46.995 6.406 L 57.675 6.406 C 57.748 6.406 57.816 6.428 57.891 6.428 C 58.513 6.417 59.145 6.406 59.811 6.406 C 59.811 4.27 63.492 -0.002 66.934 -0.002 C 70.374 -0.002 70.493 2.867 70.493 6.406 C 70.493 7.052 70.371 7.661 70.2 8.246 C 73.937 10.267 76.902 14.505 76.902 23.496 Z" style="" transform="matrix(-1, 0, 0, -1, 76.899004, 49.90089)"/>
  <path fill="#292F33" d="M 49.131 14.136 C 49.131 11.669 51.801 10.127 53.937 11.36 C 54.928 11.932 55.539 12.99 55.539 14.136 C 55.539 15.906 54.106 14.136 52.335 14.136 C 50.564 14.136 49.131 15.906 49.131 14.136 Z" style="" transform="matrix(-1, 0, 0, -1, 104.670003, 25.84883)"/>
  <g fill="#77B255" transform="matrix(-2.136228, 0, 0, 2.136228, 76.902237, -27.001482)" style="">
    <ellipse cx="27.5" cy="24" rx="1.5" ry="1"/>
    <ellipse cx="23.5" cy="24" rx="1.5" ry="1"/>
    <ellipse cx="19.5" cy="24" rx="1.5" ry="1"/>
    <ellipse cx="21.5" cy="26" rx="1.5" ry="1"/>
    <ellipse cx="25.5" cy="26" rx="1.5" ry="1"/>
  </g>
  <path fill="#FFF" d="M 72.63 19.996 C 71.8 19.996 70.494 22.132 70.494 22.132 L 74.767 22.132 C 74.767 22.132 73.461 19.996 72.63 19.996 Z M 68.358 18.994 C 67.527 18.994 66.222 22.132 66.222 22.132 L 70.494 22.132 C 70.494 22.132 69.189 18.994 68.358 18.994 Z M 64.086 17.86 C 63.254 17.86 61.949 22.132 61.949 22.132 L 66.222 22.132 C 66.222 22.132 64.917 17.86 64.086 17.86 Z" style="" transform="matrix(-1, 0, 0, -1, 136.71598, 39.991996)"/>
</svg>